<svg viewBox="0 0 20 20" fill="none" xmlns="http://www.w3.org/2000/svg" xmlns:xlink="http://www.w3.org/1999/xlink" x="0" y="0"><path id="Icon" d="M3.85,15.1c0.85,-0.65 1.8,-1.1625 2.85,-1.5375c1.05,-0.375 2.15,-0.5625 3.3,-0.5625c1.15,0 2.25,0.1875 3.3,0.5625c1.05,0.375 2,0.8875 2.85,1.5375c0.58,-0.6833 1.04,-1.4583 1.36,-2.325c0.33,-0.8667 0.49,-1.7917 0.49,-2.775c0,-2.2167 -0.78,-4.1042 -2.34,-5.6625c-1.56,-1.5583 -3.44,-2.3375 -5.66,-2.3375c-2.22,0 -4.1,0.7792 -5.66,2.3375c-1.56,1.5583 -2.34,3.4458 -2.34,5.6625c0,0.9833 0.16,1.9083 0.49,2.775c0.32,0.8667 0.78,1.6417 1.36,2.325zM10,11c-0.98,0 -1.81,-0.3375 -2.49,-1.0125c-0.67,-0.675 -1.01,-1.5042 -1.01,-2.4875c0,-0.9833 0.34,-1.8125 1.01,-2.4875c0.68,-0.675 1.51,-1.0125 2.49,-1.0125c0.98,0 1.81,0.3375 2.49,1.0125c0.67,0.675 1.01,1.5042 1.01,2.4875c0,0.9833 -0.34,1.8125 -1.01,2.4875c-0.68,0.675 -1.51,1.0125 -2.49,1.0125zM10,20c-1.38,0 -2.68,-0.2625 -3.9,-0.7875c-1.22,-0.525 -2.28,-1.2375 -3.18,-2.1375c-0.89,-0.9 -1.61,-1.9583 -2.13,-3.175c-0.53,-1.2167 -0.79,-2.5167 -0.79,-3.9c0,-1.3833 0.26,-2.6833 0.79,-3.9c0.52,-1.2167 1.24,-2.275 2.13,-3.175c0.9,-0.9 1.96,-1.6125 3.18,-2.1375c1.22,-0.525 2.52,-0.7875 3.9,-0.7875c1.38,0 2.68,0.2625 3.9,0.7875c1.22,0.525 2.28,1.2375 3.18,2.1375c0.9,0.9 1.61,1.9583 2.13,3.175c0.53,1.2167 0.79,2.5167 0.79,3.9c0,1.3833 -0.26,2.6833 -0.79,3.9c-0.52,1.2167 -1.23,2.275 -2.13,3.175c-0.9,0.9 -1.96,1.6125 -3.18,2.1375c-1.22,0.525 -2.52,0.7875 -3.9,0.7875zM10,18c0.88,0 1.72,-0.1292 2.5,-0.3875c0.78,-0.2583 1.5,-0.6292 2.15,-1.1125c-0.65,-0.4833 -1.37,-0.8542 -2.15,-1.1125c-0.78,-0.2583 -1.62,-0.3875 -2.5,-0.3875c-0.88,0 -1.72,0.1292 -2.5,0.3875c-0.78,0.2583 -1.5,0.6292 -2.15,1.1125c0.65,0.4833 1.37,0.8542 2.15,1.1125c0.78,0.2583 1.62,0.3875 2.5,0.3875zM10,9c0.43,0 0.79,-0.1417 1.07,-0.425c0.29,-0.2833 0.43,-0.6417 0.43,-1.075c0,-0.4333 -0.14,-0.7917 -0.43,-1.075c-0.28,-0.2833 -0.64,-0.425 -1.07,-0.425c-0.43,0 -0.79,0.1417 -1.07,0.425c-0.29,0.2833 -0.43,0.6417 -0.43,1.075c0,0.4333 0.14,0.7917 0.43,1.075c0.28,0.2833 0.64,0.425 1.07,0.425z" fill="currentColor"/></svg>